<svg width="24" height="24" viewBox="0 0 24 24" fill="none" xmlns="http://www.w3.org/2000/svg">
<path d="M2.06251 12.3484C1.97916 12.1238 1.97916 11.8769 2.06251 11.6524C2.87421 9.68421 4.25202 8.0014 6.02128 6.81726C7.79053 5.63312 9.87155 5.00098 12.0005 5.00098C14.1295 5.00098 16.2105 5.63312 17.9797 6.81726C19.749 8.0014 21.1268 9.68421 21.9385 11.6524C22.0218 11.8769 22.0218 12.1238 21.9385 12.3484C21.1268 14.3165 19.749 15.9993 17.9797 17.1835C16.2105 18.3676 14.1295 18.9997 12.0005 18.9997C9.87155 18.9997 7.79053 18.3676 6.02128 17.1835C4.25202 15.9993 2.87421 14.3165 2.06251 12.3484Z" stroke="#3C3C43" stroke-opacity="0.25" stroke-width="2" stroke-linecap="round" stroke-linejoin="round"/>
<path d="M12.0005 15.0002C13.6573 15.0002 15.0005 13.6571 15.0005 12.0002C15.0005 10.3434 13.6573 9.00024 12.0005 9.00024C10.3436 9.00024 9.00049 10.3434 9.00049 12.0002C9.00049 13.6571 10.3436 15.0002 12.0005 15.0002Z" stroke="#3C3C43" stroke-opacity="0.25" stroke-width="2" stroke-linecap="round" stroke-linejoin="round"/>
</svg>
