<svg width="246" height="246" viewBox="0 0 246 246" fill="none" xmlns="http://www.w3.org/2000/svg">
<path d="M75.791 153.719C68.697 125.111 75.9249 97.3831 96.0691 75.8926C105.84 65.5202 116.682 57.6562 132.208 49.6565C144.589 43.3517 152.219 40.301 172.028 33.6573C188.492 28.166 201.877 22.8103 206.628 19.8274C207.9 19.0817 209.439 18.4715 209.974 18.5393C212.317 19.0139 215.328 43.1484 215.328 61.5882C215.328 85.8582 211.647 104.976 203.683 121.721C188.425 153.787 157.104 174.464 118.288 178.057C106.375 179.21 102.293 184.362 100.085 200.904L100.043 201.21C99.5697 204.736 99.3506 206.366 100.047 207.288C100.668 208.11 102.019 208.368 104.568 208.903C115.41 211.276 131.071 211.479 140.708 209.31C166.474 203.615 188.358 186.667 199.869 163.617C204.821 153.719 208.636 138.059 208.636 127.822C208.636 123.619 209.037 121.992 210.978 117.45C212.25 114.535 214.391 108.501 215.663 104.027C216.611 100.741 217.41 98.2095 217.783 97.3869C218.518 94.9577 218.939 94.5289 219.703 97.5174C219.703 97.5687 219.758 97.7123 219.845 97.9422L219.845 97.9424C219.967 98.2672 220.155 98.7642 220.347 99.4169C224.698 114.399 224.095 140.974 219.009 156.363C213.923 171.685 207.163 183.345 196.522 194.938C188.157 204.09 174.437 213.852 162.793 218.937C136.625 230.394 105.572 229.241 79.4717 216.022C53.505 202.87 34.4985 179.684 27.0699 152.296C24.0583 141.245 23.5898 137.313 23.5898 123.823C23.6568 113.179 23.8575 109.789 25.1291 104.162C27.0699 95.1459 28.8099 89.858 32.3569 82.2651C41.3248 62.8084 54.442 48.165 72.4446 37.3859C84.1564 30.4031 97.4074 25.7932 111.595 23.8272C117.886 22.9459 135.755 23.556 142.046 24.8441C150.947 26.6745 160.517 29.9964 160.316 31.0811C160.182 31.6234 158.041 32.8437 155.431 33.725C152.888 34.6063 148.337 36.5045 145.392 37.9282C140.306 40.3688 139.837 40.4366 136.023 39.8942C129.063 38.9451 110.658 39.7586 104.234 41.3857C70.7715 49.8598 47.4149 74.2655 40.254 108.23C38.7817 115.552 38.7148 131.212 40.1871 139.483C42.7302 153.652 48.8203 167.481 57.1859 178.057C61.0675 182.871 69.5 191.006 74.4524 194.599C79.8063 198.531 87.4357 203.141 87.7703 202.734C87.8271 202.619 88.365 200.311 89.0577 197.338L89.0578 197.338C89.182 196.805 89.3112 196.25 89.4434 195.684C93.9943 175.684 103.23 152.838 113.603 136.025C125.449 116.772 139.101 101.247 165.135 77.5874C174.504 69.0454 178.453 65.1812 177.784 65.1812C176.78 65.1812 161.521 73.8587 156.301 77.4518C129.397 95.6882 108.517 118.67 95.7343 144.161C91.2504 153.109 89.778 156.499 86.3649 166.193C85.6011 168.429 84.9717 170.037 84.6476 170.604C83.7509 172.557 83.2842 172.498 82.4834 171.346C80.8103 169.176 77.3972 160.16 75.791 153.719Z" fill="#76C740"/>
</svg>
