<svg width="171" height="201" viewBox="0 0 171 201" fill="none" xmlns="http://www.w3.org/2000/svg">
<path d="M55.6196 96.2917C51.1758 78.3708 55.7034 61.0021 68.3219 47.5402C74.4426 41.0428 81.2339 36.1167 90.9599 31.1057C98.7154 27.1563 103.495 25.2453 115.903 21.0836C126.216 17.6438 134.601 14.289 137.577 12.4204C138.374 11.9533 139.338 11.5711 139.673 11.6136C141.141 11.9108 143.027 27.0289 143.027 38.5798C143.027 53.7828 140.721 65.7583 135.733 76.2475C126.174 96.3342 106.555 109.286 82.2401 111.537C74.7779 112.259 72.2207 115.487 70.8373 125.848L70.8115 126.04C70.5148 128.249 70.3775 129.27 70.8135 129.847C71.1887 130.344 71.9887 130.512 73.4772 130.824L73.646 130.859C80.4374 132.346 90.2472 132.473 96.284 131.114C112.424 127.547 126.132 116.93 133.343 102.492C136.445 96.2917 138.835 86.4819 138.835 80.0695C138.835 77.4366 139.086 76.4174 140.302 73.5721C141.099 71.7461 142.44 67.9666 143.237 65.1638C143.831 63.1057 144.331 61.5197 144.565 61.0044C145.025 59.4828 145.289 59.2141 145.768 61.0862C145.768 61.1183 145.802 61.2083 145.856 61.3524C145.933 61.5559 146.051 61.8673 146.171 62.276C148.896 71.6611 148.519 88.308 145.333 97.9479C142.147 107.545 137.912 114.85 131.247 122.111C126.007 127.844 117.413 133.959 110.118 137.144C93.7266 144.321 74.2748 143.599 57.9252 135.318C41.6594 127.08 29.7536 112.556 25.1002 95.3999C23.2137 88.4778 22.9203 86.0148 22.9203 77.564C22.9622 70.8967 23.0879 68.7734 23.8845 65.2487C25.1002 59.6006 26.1902 56.2883 28.412 51.532C34.0296 39.3441 42.2463 30.1714 53.5234 23.4192C60.8597 19.0452 69.1603 16.1575 78.0478 14.9259C81.9884 14.3739 93.1816 14.7561 97.1223 15.5629C102.698 16.7095 108.693 18.7904 108.567 19.4698C108.483 19.8096 107.142 20.574 105.507 21.126C103.914 21.6781 101.063 22.8672 99.2184 23.759C96.0323 25.2877 95.7389 25.3302 93.3493 24.9905C88.9894 24.396 77.4608 24.9055 73.4363 25.9247C52.4753 31.233 37.8445 46.521 33.3588 67.7967C32.4366 72.383 32.3946 82.1928 33.3169 87.3737C34.91 96.2492 38.7249 104.912 43.9651 111.537C46.3966 114.552 51.6788 119.648 54.781 121.899C58.1348 124.362 62.9139 127.25 63.1235 126.995C63.1591 126.923 63.496 125.477 63.9299 123.615L64.1716 122.578C67.0223 110.051 72.8075 95.7396 79.3054 85.2079C86.7256 73.1474 95.2777 63.4226 111.585 48.6018C117.454 43.2511 119.928 40.8305 119.509 40.8305C118.88 40.8305 109.322 46.2662 106.052 48.5169C89.199 59.9404 76.1193 74.3365 68.1122 90.3039C65.3035 95.9095 64.3812 98.0328 62.2431 104.105C61.7647 105.506 61.3705 106.513 61.1674 106.868C60.6057 108.092 60.3134 108.055 59.8118 107.333C58.7637 105.974 56.6257 100.326 55.6196 96.2917Z" fill="#76C740"/>
<path d="M112.883 159.441C110.245 160.73 110.204 164.472 112.842 165.78C114.007 166.394 115.193 166.373 116.338 165.78C118.731 164.513 118.772 160.893 116.42 159.564C115.439 159.012 113.864 158.951 112.883 159.441Z" fill="#487A27"/>
<path d="M0.0690132 160.157C0.00766813 160.3 -0.0127802 167.314 0.00766814 175.759L0.0690132 191.096L10.0683 191.157C17.9409 191.198 20.1084 191.157 20.2515 190.952C20.3333 190.809 20.4151 189.562 20.4151 188.192C20.4151 185.902 20.3742 185.677 20.0062 185.472C19.7403 185.329 17.3888 185.268 13.0537 185.309L6.51025 185.37V178.295L12.4607 178.315C15.7529 178.336 18.5134 178.254 18.6157 178.152C18.7179 178.049 18.7588 176.823 18.7384 175.432L18.677 172.896L12.6039 172.835L6.51025 172.794V165.842L13.3196 165.801L20.1084 165.74V160.014L10.1296 159.953C2.25699 159.912 0.130358 159.953 0.0690132 160.157Z" fill="#76C740"/>
<path d="M31.948 167.887C27.572 168.561 24.3412 171.506 22.8689 176.168C22.2555 178.111 22.235 181.526 22.828 183.366C23.83 186.536 25.8135 188.969 28.39 190.237C34.0337 193.018 40.5976 191.239 43.215 186.229C43.5422 185.615 43.7467 185.002 43.6853 184.818C43.5013 184.388 38.8391 182.548 38.471 182.773C38.3483 182.855 38.1234 183.202 37.9393 183.53C36.4466 186.454 32.2547 186.945 30.1485 184.429C29.0034 183.08 28.6967 182.098 28.6967 179.747C28.6967 177.825 28.758 177.477 29.2692 176.434C30.5984 173.714 33.2771 172.692 35.8741 173.898C36.9578 174.41 37.5713 175.023 38.0007 176.046C38.1234 176.373 38.3483 176.7 38.4915 176.741C38.9413 176.925 43.6035 174.962 43.6853 174.573C43.7876 174.021 42.4789 171.772 41.3747 170.647C39.3298 168.541 35.3015 167.355 31.948 167.887Z" fill="#76C740"/>
<path d="M82.6395 167.887C81.4126 168.152 80.1448 168.848 79.1633 169.788L78.284 170.627V169.584C78.284 168.95 78.1817 168.459 77.9977 168.316C77.8137 168.152 76.8322 168.091 74.9918 168.132L72.2517 168.193V191.096L75.094 191.157C77.2411 191.198 77.9773 191.136 78.1204 190.952C78.2022 190.809 78.284 187.64 78.284 183.939C78.284 180.053 78.3658 176.884 78.4885 176.454C78.9792 174.675 80.3288 173.612 82.2714 173.449C84.1936 173.285 85.809 174.389 86.4429 176.25C86.586 176.72 86.6678 179.235 86.6678 183.836C86.6678 189.48 86.7292 190.789 86.9541 190.973C87.1381 191.136 88.1197 191.198 89.96 191.157L92.7001 191.096L92.8023 183.836C92.9046 176.904 92.925 176.536 93.3544 175.759C93.5794 175.309 94.0088 174.737 94.2746 174.491C95.8696 172.999 99.1004 173.081 100.491 174.655C101.329 175.596 101.391 176.23 101.391 183.55C101.391 187.394 101.452 190.687 101.513 190.871C101.616 191.157 102.086 191.198 104.458 191.198C106.83 191.198 107.3 191.157 107.402 190.871C107.464 190.687 107.525 187.047 107.525 182.753C107.525 176.495 107.464 174.675 107.218 173.633C106.4 170.218 104.335 168.377 100.716 167.887C97.4646 167.437 94.0906 168.725 92.332 171.097L91.8413 171.751L91.2074 170.852C90.4303 169.747 89.2239 168.848 87.772 168.316C86.5247 167.846 83.8868 167.621 82.6395 167.887Z" fill="#487A27"/>
<path d="M156.663 167.887C152.082 168.725 148.463 172.099 147.277 176.7C146.827 178.438 146.97 182.2 147.563 183.836C148.831 187.394 151.039 189.562 154.761 190.871C156.315 191.402 156.765 191.484 158.85 191.484C160.854 191.484 161.427 191.402 162.674 190.952C166.437 189.603 168.604 187.476 169.811 183.898C170.281 182.548 170.363 181.935 170.383 179.951C170.383 178.622 170.281 177.109 170.118 176.475C168.911 171.465 164.781 168.091 159.525 167.805C158.523 167.744 157.256 167.784 156.663 167.887ZM160.875 173.735C163.595 174.86 165.005 178.602 164.003 181.935C163.186 184.593 161.182 186.167 158.605 186.147C155.17 186.127 152.941 183.305 153.166 179.256C153.329 176.27 154.986 174.021 157.48 173.387C158.319 173.183 159.934 173.346 160.875 173.735Z" fill="#487A27"/>
<path d="M128.137 168.152C124.865 169.093 122.043 172.283 121.103 176.189C120.673 177.886 120.633 181.423 121.001 183.018C121.921 186.924 125.07 190.073 128.751 190.809C131.818 191.402 135.458 190.4 137.646 188.376C138.279 187.762 138.3 187.865 137.973 189.664C137.523 192.077 136.255 193.713 134.333 194.367C132.145 195.103 128.464 194.551 125.745 193.038C125.131 192.711 124.518 192.425 124.375 192.425C124.252 192.425 123.577 193.447 122.882 194.694C121.921 196.412 121.675 197.026 121.839 197.23C122.228 197.7 125.356 199.132 127.053 199.622C128.444 200.011 129.16 200.093 131.859 200.093C134.558 200.093 135.233 200.031 136.46 199.643C140.365 198.416 143.064 195.369 143.821 191.341C144.25 189.051 144.271 168.664 143.841 168.316C143.657 168.152 142.696 168.091 140.938 168.132L138.3 168.193L138.177 170.545L137.012 169.727C135.233 168.48 133.781 168.03 131.245 167.948C129.916 167.907 128.73 167.989 128.137 168.152ZM134.333 173.53C135.826 173.98 137.421 175.575 137.871 177.109C139.138 181.362 136.623 185.513 132.718 185.554C130.284 185.574 128.607 184.654 127.605 182.732C127.135 181.812 127.074 181.464 127.053 179.644C127.053 177.927 127.135 177.436 127.524 176.557C128.158 175.166 129.323 174.062 130.673 173.592C132.022 173.121 132.902 173.101 134.333 173.53Z" fill="#487A27"/>
<path d="M111.513 168.337C111.451 168.48 111.431 173.653 111.451 179.849L111.513 191.096H117.443L117.504 179.869C117.524 171.751 117.483 168.561 117.32 168.377C116.993 167.989 111.656 167.968 111.513 168.337Z" fill="#487A27"/>
<path d="M51.6102 182.933C50.7656 179.57 51.6261 176.311 54.0244 173.786C55.1877 172.567 56.4785 171.642 58.327 170.702C59.801 169.961 60.7094 169.603 63.0678 168.822C65.0279 168.176 66.6214 167.547 67.1871 167.196C67.3385 167.109 67.5218 167.037 67.5855 167.045C67.8644 167.101 68.2229 169.937 68.2229 172.104C68.2229 174.957 67.7847 177.204 66.8366 179.172C65.0199 182.941 61.291 185.371 56.6697 185.793C55.2515 185.928 54.7654 186.534 54.5025 188.478L54.4976 188.514C54.4412 188.928 54.4151 189.12 54.498 189.228C54.572 189.325 54.7328 189.355 55.0363 189.418C56.3271 189.697 58.1916 189.721 59.3389 189.466C62.4065 188.797 65.0119 186.805 66.3824 184.096C66.972 182.933 67.4262 181.092 67.4262 179.889C67.4262 179.395 67.474 179.204 67.705 178.67C67.8564 178.327 68.1114 177.618 68.2628 177.092C68.3757 176.706 68.4708 176.408 68.5152 176.312C68.6027 176.026 68.6528 175.976 68.7438 176.327C68.7438 176.333 68.7503 176.35 68.7606 176.377C68.7753 176.415 68.7976 176.474 68.8205 176.55C69.3384 178.311 69.2667 181.435 68.6612 183.243C68.0556 185.044 67.2509 186.414 65.984 187.777C64.988 188.853 63.3546 190 61.9683 190.598C58.8529 191.944 55.1558 191.809 52.0484 190.255C48.9569 188.709 46.6941 185.984 45.8097 182.765C45.4511 181.466 45.3954 181.004 45.3954 179.419C45.4033 178.168 45.4272 177.769 45.5786 177.108C45.8097 176.048 46.0168 175.427 46.4391 174.535C47.5068 172.248 49.0685 170.527 51.2118 169.26C52.6062 168.439 54.1838 167.897 55.8729 167.666C56.6219 167.563 58.7493 167.634 59.4983 167.786C60.558 168.001 61.6973 168.391 61.6734 168.519C61.6575 168.583 61.4025 168.726 61.0918 168.83C60.789 168.933 60.2472 169.156 59.8966 169.324C59.2911 169.61 59.2353 169.618 58.7812 169.555C57.9525 169.443 55.7614 169.539 54.9965 169.73C51.0126 170.726 48.2319 173.594 47.3793 177.586C47.204 178.447 47.1961 180.287 47.3714 181.259C47.6741 182.925 48.3992 184.55 49.3952 185.793C49.8573 186.359 50.8612 187.315 51.4508 187.737C52.0883 188.199 52.9966 188.741 53.0364 188.693C53.0432 188.68 53.1072 188.408 53.1897 188.059L53.2356 187.865C53.7774 185.514 54.877 182.829 56.112 180.853C57.5223 178.59 59.1477 176.766 62.2471 173.985C63.3626 172.981 63.8327 172.527 63.753 172.527C63.6335 172.527 61.8169 173.547 61.1954 173.969C57.9924 176.112 55.5064 178.813 53.9846 181.809C53.4507 182.861 53.2755 183.259 52.8691 184.399C52.7782 184.661 52.7032 184.85 52.6646 184.917C52.5579 185.146 52.5023 185.14 52.407 185.004C52.2078 184.749 51.8014 183.689 51.6102 182.933Z" fill="#76C740"/>
</svg>
