<svg width="272" height="66" viewBox="0 0 272 66" fill="none" xmlns="http://www.w3.org/2000/svg">
<path d="M180.206 0.531233C175.995 2.58779 175.93 8.5616 180.141 10.6508C182.001 11.6301 183.895 11.5975 185.723 10.6508C189.542 8.62688 189.607 2.84894 185.853 0.727095C184.286 -0.154286 181.773 -0.252217 180.206 0.531233Z" fill="#487A27"/>
<path d="M0.110173 1.67376C0.0122414 1.90227 -0.0204023 13.0991 0.0122414 26.5809L0.110173 51.0638L16.073 51.1617C28.6408 51.227 32.1011 51.1617 32.3296 50.8353C32.4601 50.6068 32.5907 48.6155 32.5907 46.4284C32.5907 42.7723 32.5254 42.4132 31.9378 42.0867C31.5135 41.8582 27.7594 41.7603 20.839 41.8256L10.393 41.9235V30.6288L19.8923 30.6614C25.1479 30.6941 29.5548 30.5635 29.7181 30.4003C29.8813 30.237 29.9466 28.2784 29.9139 26.0586L29.816 22.0108L20.1208 21.9129L10.393 21.8476V10.7487L21.2633 10.6834L32.1011 10.5855V1.44526L16.1709 1.34733C3.60306 1.28204 0.208104 1.34733 0.110173 1.67376Z" fill="#76C740"/>
<path d="M51.0018 14.0131C44.016 15.0904 38.8583 19.7911 36.5079 27.2339C35.5286 30.335 35.496 35.7865 36.4426 38.7245C38.0422 43.7842 41.2086 47.6688 45.3217 49.6928C54.3314 54.1323 64.8101 51.2923 68.9885 43.2946C69.5108 42.3153 69.8372 41.3359 69.7393 41.0422C69.4455 40.3566 62.0027 37.4187 61.4151 37.7778C61.2192 37.9084 60.8602 38.4633 60.5664 38.9856C58.1834 43.6537 51.4914 44.4371 48.1291 40.4219C46.301 38.2674 45.8114 36.7005 45.8114 32.9465C45.8114 29.878 45.9093 29.323 46.7254 27.6582C48.8473 23.3166 53.1236 21.6844 57.2694 23.6104C58.9995 24.4265 59.9788 25.4058 60.6643 27.038C60.8602 27.5603 61.2192 28.0826 61.4478 28.1479C62.1659 28.4417 69.6087 25.3079 69.7393 24.6876C69.9025 23.8063 67.8133 20.2154 66.0505 18.42C62.7862 15.0577 56.3553 13.1644 51.0018 14.0131Z" fill="#76C740"/>
<path d="M131.926 14.0131C129.967 14.4375 127.943 15.5474 126.376 17.049L124.973 18.3874V16.7226C124.973 15.7106 124.809 14.9271 124.516 14.6986C124.222 14.4375 122.655 14.3396 119.717 14.4048L115.343 14.5028V51.0638L119.88 51.1617C123.308 51.227 124.483 51.1291 124.711 50.8353C124.842 50.6068 124.973 45.547 124.973 39.6385C124.973 33.4362 125.103 28.3764 125.299 27.6909C126.082 24.8509 128.237 23.1534 131.338 22.8922C134.407 22.6311 136.985 24.3938 137.997 27.3644C138.226 28.1152 138.357 32.1304 138.357 39.4753C138.357 48.4849 138.454 50.5741 138.814 50.8679C139.107 51.1291 140.674 51.227 143.612 51.1617L147.986 51.0638L148.15 39.4753C148.313 28.409 148.346 27.8214 149.031 26.581C149.39 25.8628 150.076 24.9488 150.5 24.5571C153.046 22.1741 158.204 22.3046 160.424 24.8182C161.762 26.3198 161.86 27.3318 161.86 39.0182C161.86 45.1553 161.958 50.4109 162.056 50.7047C162.219 51.1617 162.97 51.227 166.757 51.227C170.543 51.227 171.294 51.1617 171.457 50.7047C171.555 50.4109 171.653 44.6003 171.653 37.7451C171.653 27.7561 171.555 24.8508 171.163 23.186C169.858 17.7345 166.561 14.7966 160.783 14.0131C155.592 13.295 150.206 15.3515 147.399 19.1382L146.615 20.1828L145.603 18.7465C144.363 16.9837 142.437 15.5474 140.119 14.6986C138.128 13.9478 133.917 13.5888 131.926 14.0131Z" fill="#487A27"/>
<path d="M250.096 14.0131C242.784 15.3515 237.006 20.7377 235.113 28.0826C234.394 30.8573 234.623 36.8638 235.57 39.4753C237.593 45.1553 241.119 48.6155 247.06 50.7047C249.541 51.5535 250.259 51.684 253.589 51.684C256.788 51.684 257.702 51.5535 259.693 50.8353C265.7 48.6808 269.16 45.2859 271.086 39.5732C271.837 37.4187 271.967 36.4394 272 33.2729C272 31.1511 271.837 28.7355 271.576 27.7235C269.65 19.7258 263.056 14.3396 254.666 13.8826C253.067 13.7846 251.043 13.8499 250.096 14.0131ZM256.821 23.3492C261.162 25.1447 263.415 31.1185 261.815 36.4394C260.509 40.6831 257.31 43.1966 253.197 43.164C247.713 43.1314 244.155 38.6265 244.514 32.1631C244.775 27.3971 247.419 23.8063 251.402 22.7943C252.74 22.4679 255.319 22.729 256.821 23.3492Z" fill="#487A27"/>
<path d="M204.558 14.4375C199.335 15.9391 194.83 21.0315 193.329 27.2665C192.643 29.9759 192.578 35.6233 193.165 38.1695C194.634 44.4045 199.661 49.4316 205.537 50.6068C210.434 51.5534 216.245 49.9539 219.737 46.7222C220.749 45.7429 220.782 45.9061 220.26 48.7787C219.542 52.6307 217.518 55.2422 214.449 56.2868C210.956 57.462 205.08 56.5806 200.739 54.1649C199.759 53.6426 198.78 53.1856 198.552 53.1856C198.356 53.1856 197.279 54.8178 196.169 56.8091C194.634 59.5512 194.243 60.5305 194.504 60.8569C195.124 61.6077 200.119 63.8928 202.828 64.6762C205.048 65.2965 206.19 65.427 210.499 65.427C214.808 65.427 215.885 65.3291 217.844 64.7089C224.079 62.7503 228.388 57.8863 229.596 51.4555C230.281 47.7994 230.314 15.2536 229.628 14.6986C229.335 14.4375 227.8 14.3396 224.993 14.4048L220.782 14.5028L220.586 18.2568L218.725 16.9511C215.885 14.9598 213.568 14.2416 209.52 14.1111C207.398 14.0458 205.505 14.1763 204.558 14.4375ZM214.449 23.0228C216.832 23.741 219.378 26.2872 220.096 28.7355C222.12 35.5254 218.105 42.152 211.87 42.2173C207.986 42.25 205.309 40.781 203.709 37.7125C202.959 36.2435 202.861 35.6886 202.828 32.7833C202.828 30.0412 202.959 29.2578 203.579 27.8541C204.591 25.6343 206.451 23.8715 208.606 23.1207C210.76 22.3699 212.164 22.3373 214.449 23.0228Z" fill="#487A27"/>
<path d="M178.019 14.7313C177.921 14.9598 177.888 23.2186 177.921 33.1097L178.019 51.0638H187.485L187.583 33.1423C187.616 20.1828 187.551 15.0903 187.289 14.7966C186.767 14.1763 178.247 14.1437 178.019 14.7313Z" fill="#487A27"/>
<path d="M82.3905 38.0324C81.0423 32.6647 82.416 27.4623 86.2446 23.4302C88.1017 21.4841 90.1623 20.0086 93.1133 18.5077C95.4664 17.3247 96.9164 16.7524 100.681 15.5058C103.811 14.4755 106.354 13.4707 107.258 12.911C107.499 12.7711 107.792 12.6566 107.894 12.6693C108.339 12.7584 108.911 17.2866 108.911 20.7463C108.911 25.3 108.212 28.8869 106.698 32.0287C103.798 38.0451 97.845 41.9246 90.4675 42.5988C88.2034 42.815 87.4275 43.7817 87.0078 46.8853L87 46.9429C86.9099 47.6043 86.8683 47.9102 87.0006 48.0831C87.1187 48.2375 87.3754 48.2858 87.86 48.3862C89.9206 48.8314 92.897 48.8696 94.7287 48.4626C99.6257 47.3941 103.785 44.2142 105.973 39.8895C106.914 38.0324 107.639 35.0942 107.639 33.1735C107.639 32.3849 107.715 32.0796 108.084 31.2274C108.326 30.6804 108.733 29.5484 108.975 28.7089C109.155 28.0924 109.307 27.6174 109.378 27.463C109.517 27.0073 109.597 26.9268 109.743 27.4875C109.743 27.4972 109.753 27.5241 109.769 27.5673C109.793 27.6282 109.829 27.7215 109.865 27.8439C110.692 30.655 110.577 35.6411 109.611 38.5285C108.644 41.4031 107.359 43.5909 105.337 45.766C103.747 47.4831 101.139 49.3148 98.9261 50.2687C93.9527 52.4184 88.0508 52.2021 83.0901 49.7218C78.1548 47.2542 74.5425 42.904 73.1306 37.7653C72.5582 35.692 72.4691 34.9542 72.4691 32.423C72.4819 30.426 72.52 29.79 72.7617 28.7343C73.1306 27.0426 73.4613 26.0504 74.1354 24.6258C75.8399 20.9753 78.3329 18.2278 81.7545 16.2054C83.9805 14.8953 86.499 14.0303 89.1955 13.6615C90.3912 13.4961 93.7874 13.6106 94.983 13.8523C96.6747 14.1957 98.4937 14.8189 98.4555 15.0225C98.4301 15.1242 98.023 15.3532 97.5269 15.5185C97.0436 15.6839 96.1787 16.04 95.619 16.3072C94.6523 16.7651 94.5633 16.7778 93.8382 16.676C92.5154 16.4979 89.0175 16.6506 87.7964 16.9559C81.4365 18.5458 76.9974 23.1249 75.6364 29.4975C75.3565 30.8712 75.3438 33.8095 75.6236 35.3613C76.107 38.0197 77.2645 40.6145 78.8544 42.5988C79.5922 43.5019 81.1949 45.0282 82.1361 45.7024C83.1537 46.4401 84.6037 47.3051 84.6673 47.2287C84.6781 47.2072 84.7804 46.774 84.912 46.2162L84.9853 45.9059C85.8503 42.1536 87.6056 37.867 89.5771 34.7126C91.8285 31.1002 94.4233 28.1873 99.3713 23.7482C101.152 22.1455 101.903 21.4205 101.775 21.4205C101.585 21.4205 98.6844 23.0486 97.6923 23.7227C92.579 27.1443 88.6104 31.4563 86.181 36.2389C85.3288 37.9179 85.0489 38.5539 84.4002 40.3728C84.2551 40.7922 84.1354 41.094 84.0738 41.2003C83.9034 41.5667 83.8147 41.5557 83.6625 41.3395C83.3445 40.9325 82.6958 39.2408 82.3905 38.0324Z" fill="#76C740"/>
</svg>
